<?xml version="1.0" encoding="UTF-8"?>
<svg id="Layer_1" data-name="Layer 1" xmlns="http://www.w3.org/2000/svg" viewBox="0 0 64 64">
  <defs>
    <style>
      .cls-1 {
        fill: #2e64bc;
      }
    </style>
  </defs>
  <path class="cls-1" d="M32,64C14.36,64,0,49.64,0,32S14.36,0,32,0s32,14.36,32,32-14.36,32-32,32ZM32,3.79C16.44,3.79,3.79,16.44,3.79,32s12.66,28.21,28.21,28.21,28.21-12.66,28.21-28.21S47.56,3.79,32,3.79Z"/>
  <g>
    <path class="cls-1" d="M29.33,36.78h0c-.73-.09-1.39.43-1.47,1.16-.29,2.42-.65,4.07-1.14,5.21-.65,1.51-1.28,1.51-1.51,1.51-.73,0-1.33.6-1.33,1.33s.6,1.33,1.33,1.33c1.73,0,3.06-1.05,3.95-3.12.59-1.38,1.02-3.27,1.34-5.94.04-.35-.06-.7-.27-.98-.22-.28-.53-.46-.89-.5Z"/>
    <path class="cls-1" d="M49.07,32.72h-2.61c.21-2.24.48-4.72.96-6.58.46-1.74,1.04-2.7,1.65-2.7.73,0,1.33-.6,1.33-1.33s-.6-1.33-1.33-1.33c-.79,0-1.92.27-2.87,1.55-.55.75-.99,1.77-1.35,3.13-.55,2.09-.84,4.81-1.06,7.25h-12.8c.23-2.79.44-5.07.87-6.83.37-1.53.87-2.45,1.33-2.45.41,0,1.44.66,2.19,6.72.09.73.75,1.24,1.48,1.16.73-.09,1.24-.75,1.16-1.48-.33-2.71-.71-4.53-1.23-5.89-.8-2.1-2.01-3.17-3.6-3.17-.75,0-1.83.26-2.71,1.51-.5.71-.89,1.68-1.2,2.97-.51,2.11-.74,4.81-.95,7.45h-3.13c-.73,0-1.33.6-1.33,1.33s.6,1.33,1.33,1.33h10.72c.27,2.69.56,5.26,1.11,7.33.35,1.33.78,2.33,1.31,3.06.92,1.27,2.03,1.54,2.79,1.54,1.61,0,2.82-1.07,3.61-3.17.51-1.36.87-3.17,1.19-5.89.04-.35-.06-.7-.28-.98-.22-.28-.54-.45-.89-.49-.35-.04-.7.06-.98.28-.28.22-.45.54-.49.89-.69,6.06-1.74,6.71-2.16,6.71-.53,0-1.1-.98-1.54-2.63-.47-1.77-.76-4.23-1.01-6.65h10.48c.73,0,1.33-.6,1.33-1.33s-.6-1.33-1.33-1.33Z"/>
    <path class="cls-1" d="M17.94,33.35c.37,0,.73-.16.98-.44.25-.28.37-.65.34-1.02-.2-2.1-.48-4.5-.98-6.43-.35-1.36-.8-2.38-1.35-3.13-.95-1.28-2.08-1.55-2.87-1.55-.41,0-.8.19-1.05.52-.25.33-.34.75-.23,1.16.15.57.68.97,1.29.98.6,0,1.19.97,1.64,2.7.46,1.75.72,4.02.91,6.01.07.68.63,1.2,1.32,1.2Z"/>
    <path class="cls-1" d="M21.5,44.96c-.19,0-.7,0-1.24-1.25-.3-.71-.56-3.2-.77-5.21-.07-.65-.13-1.27-.19-1.78-.08-.64-.66-1.1-1.3-1.03h0c-.31.04-.59.19-.78.44-.19.25-.28.55-.24.86.06.47.11,1.01.18,1.6.26,2.38.55,5.08.96,6.04.76,1.77,1.91,2.67,3.4,2.67.65,0,1.17-.53,1.17-1.17s-.53-1.17-1.17-1.17Z"/>
  </g>
</svg>