<?xml version="1.0" encoding="UTF-8"?>
<svg id="Layer_1" data-name="Layer 1" xmlns="http://www.w3.org/2000/svg" viewBox="0 0 1920 1080">
  <defs>
    <style>
      .cls-1 {
        fill: #2e64bc;
      }

      .cls-2 {
        fill: #1c3e70;
      }
    </style>
  </defs>
  <g>
    <path class="cls-1" d="M421.99,666.87c-83.81,0-151.99-68.18-151.99-151.99s68.18-151.99,151.99-151.99,151.99,68.18,151.99,151.99-68.18,151.99-151.99,151.99ZM421.99,380.89c-73.88,0-133.99,60.11-133.99,133.99s60.11,133.99,133.99,133.99,133.99-60.11,133.99-133.99-60.11-133.99-133.99-133.99Z"/>
    <g>
      <path class="cls-1" d="M409.29,537.57h0c-3.46-.41-6.59,2.06-7,5.51-1.37,11.48-3.09,19.35-5.42,24.75-3.08,7.17-6.06,7.17-7.18,7.17-3.47,0-6.3,2.83-6.3,6.3s2.83,6.3,6.3,6.3c8.23,0,14.55-4.98,18.76-14.8,2.81-6.54,4.83-15.51,6.35-28.23.2-1.67-.26-3.32-1.3-4.64-1.04-1.32-2.53-2.16-4.21-2.36Z"/>
      <path class="cls-1" d="M503.07,518.31h-12.4c.99-10.63,2.27-22.43,4.58-31.26,2.16-8.27,4.94-12.83,7.82-12.83,3.47,0,6.3-2.83,6.3-6.3s-2.83-6.3-6.3-6.3c-3.73,0-9.12,1.28-13.62,7.38-2.62,3.55-4.71,8.41-6.4,14.86-2.59,9.91-3.97,22.86-5.05,34.45h-60.8c1.08-13.23,2.11-24.07,4.13-32.45,1.75-7.29,4.11-11.64,6.3-11.64,1.95,0,6.86,3.11,10.4,31.94.42,3.45,3.57,5.91,7.02,5.49,3.45-.42,5.91-3.57,5.49-7.02-1.58-12.88-3.38-21.51-5.82-27.96-3.79-9.99-9.54-15.05-17.08-15.05-3.56,0-8.69,1.25-12.86,7.19-2.36,3.37-4.23,7.98-5.7,14.1-2.41,10.02-3.5,22.86-4.52,35.4h-14.88c-3.47,0-6.3,2.83-6.3,6.3s2.83,6.3,6.3,6.3h50.92c1.28,12.78,2.67,25,5.27,34.82,1.67,6.32,3.71,11.08,6.23,14.55,4.39,6.05,9.63,7.32,13.25,7.32,7.64,0,13.41-5.07,17.16-15.08,2.41-6.44,4.15-15.07,5.63-27.98.19-1.67-.28-3.32-1.33-4.64-1.05-1.32-2.54-2.15-4.22-2.34-1.67-.19-3.32.28-4.64,1.33-1.32,1.05-2.15,2.54-2.34,4.22-3.3,28.78-8.28,31.89-10.27,31.89-2.5,0-5.23-4.67-7.29-12.49-2.23-8.42-3.63-20.07-4.79-31.6h49.8c3.47,0,6.3-2.83,6.3-6.3s-2.83-6.3-6.3-6.3Z"/>
      <path class="cls-1" d="M355.2,521.31c1.77,0,3.48-.75,4.67-2.07,1.19-1.31,1.78-3.08,1.6-4.84-.97-9.96-2.28-21.37-4.68-30.53-1.69-6.45-3.78-11.31-6.4-14.86-4.5-6.1-9.89-7.38-13.62-7.38-1.96,0-3.78.89-4.99,2.45-1.2,1.56-1.61,3.57-1.1,5.51.7,2.69,3.22,4.6,6.13,4.64,2.87.04,5.63,4.59,7.78,12.83,2.17,8.3,3.4,19.1,4.32,28.56.32,3.24,3.01,5.69,6.27,5.69Z"/>
      <path class="cls-1" d="M372.14,576.46c-.91,0-3.33,0-5.89-5.95-1.44-3.36-2.67-15.21-3.66-24.74-.32-3.11-.63-6.05-.92-8.44-.37-3.05-3.15-5.24-6.2-4.87h0c-1.48.18-2.8.92-3.72,2.09-.92,1.17-1.33,2.63-1.15,4.11.26,2.21.55,4.81.85,7.59,1.23,11.32,2.62,24.15,4.56,28.67,3.62,8.43,9.05,12.7,16.14,12.7,3.07,0,5.58-2.5,5.58-5.58s-2.5-5.58-5.58-5.58Z"/>
    </g>
  </g>
  <g>
    <path class="cls-1" d="M740.54,434.39h28.8v147.14h-28.8v-60.96h-54.65v60.96h-29.01v-147.14h29.01v58.44h54.65v-58.44Z"/>
    <path class="cls-1" d="M818.32,540.12c3.64,13.17,13.52,19.76,29.64,19.76,10.37,0,18.22-3.5,23.54-10.51l21.86,12.61c-10.37,15-25.65,22.49-45.82,22.49-17.38,0-31.32-5.25-41.83-15.77-10.51-10.51-15.77-23.75-15.77-39.73s5.18-29.04,15.56-39.62c10.37-10.58,23.68-15.87,39.94-15.87,15.41,0,28.13,5.33,38.15,15.98,10.02,10.65,15.03,23.83,15.03,39.52,0,3.5-.35,7.22-1.05,11.14h-79.25ZM817.9,519.1h53.6c-1.54-7.15-4.73-12.47-9.56-15.98-4.83-3.5-10.34-5.25-16.5-5.25-7.29,0-13.32,1.86-18.08,5.57-4.77,3.71-7.92,8.93-9.46,15.66Z"/>
    <path class="cls-1" d="M996.57,476.43h27.12v105.1h-27.12v-12.4c-8.13,10.23-19.55,15.34-34.26,15.34s-26.03-5.36-36.05-16.08c-10.02-10.72-15.03-23.86-15.03-39.41s5.01-28.69,15.03-39.41c10.02-10.72,22.04-16.08,36.05-16.08,14.71,0,26.13,5.12,34.26,15.35v-12.4ZM946.54,550.31c5.47,5.54,12.4,8.3,20.81,8.3s15.38-2.76,20.92-8.3c5.54-5.53,8.3-12.65,8.3-21.34s-2.77-15.8-8.3-21.34c-5.54-5.53-12.51-8.3-20.92-8.3s-15.34,2.77-20.81,8.3c-5.46,5.54-8.2,12.65-8.2,21.34s2.73,15.8,8.2,21.34Z"/>
    <path class="cls-1" d="M1048.28,581.53v-153.45h27.12v153.45h-27.12Z"/>
    <path class="cls-1" d="M1160.32,502.49h-23.75v43.72c0,3.65.91,6.31,2.73,7.99,1.82,1.68,4.48,2.63,7.99,2.84,3.5.21,7.85.18,13.03-.11v24.59c-18.64,2.1-31.78.35-39.41-5.26-7.64-5.6-11.46-15.62-11.46-30.06v-43.72h-18.29v-26.07h18.29v-21.23l27.12-8.2v29.43h23.75v26.07Z"/>
    <path class="cls-2" d="M1210.84,581.53l-38.96-147.14h30.34l28.31,109.1,30.69-109.1h25.13l30.82,108.82,27.93-108.82h27.94l-38.66,147.14h-33l-27.88-97.63-27.68,97.63h-34.97Z"/>
    <path class="cls-2" d="M1458.39,476.43h27.12v105.1h-27.12v-12.4c-8.13,10.23-19.55,15.34-34.26,15.34s-26.03-5.36-36.05-16.08c-10.02-10.72-15.03-23.86-15.03-39.41s5.01-28.69,15.03-39.41c10.02-10.72,22.04-16.08,36.05-16.08,14.71,0,26.13,5.12,34.26,15.35v-12.4ZM1408.36,550.31c5.47,5.54,12.4,8.3,20.81,8.3s15.38-2.76,20.92-8.3,8.3-12.65,8.3-21.34-2.77-15.8-8.3-21.34c-5.54-5.53-12.51-8.3-20.92-8.3s-15.34,2.77-20.81,8.3c-5.46,5.54-8.2,12.65-8.2,21.34s2.73,15.8,8.2,21.34Z"/>
    <path class="cls-2" d="M1579.25,476.43h29.85l-39.94,105.1h-30.9l-39.94-105.1h29.85l25.48,73.56,25.6-73.56Z"/>
    <path class="cls-2" d="M1640.85,540.12c3.64,13.17,13.52,19.76,29.64,19.76,10.37,0,18.22-3.5,23.54-10.51l21.86,12.61c-10.37,15-25.65,22.49-45.83,22.49-17.38,0-31.32-5.25-41.83-15.77s-15.77-23.75-15.77-39.73,5.18-29.04,15.56-39.62c10.37-10.58,23.68-15.87,39.94-15.87,15.41,0,28.13,5.33,38.15,15.98,10.02,10.65,15.03,23.83,15.03,39.52,0,3.5-.35,7.22-1.05,11.14h-79.25ZM1640.43,519.1h53.6c-1.54-7.15-4.73-12.47-9.56-15.98-4.83-3.5-10.34-5.25-16.5-5.25-7.29,0-13.31,1.86-18.08,5.57-4.77,3.71-7.92,8.93-9.46,15.66Z"/>
  </g>
</svg>