<?xml version="1.0" encoding="UTF-8"?>
<svg width="64" height="64" viewBox="0 0 64 64" fill="none" xmlns="http://www.w3.org/2000/svg">
  <defs>
    <linearGradient id="grad1" x1="0%" y1="0%" x2="100%" y2="100%">
      <stop offset="0%" style="stop-color:#2563eb;stop-opacity:1" />
      <stop offset="100%" style="stop-color:#4f46e5;stop-opacity:1" />
    </linearGradient>
  </defs>
  
  <!-- Background Circle -->
  <circle cx="32" cy="32" r="28" fill="url(#grad1)" stroke="white" stroke-width="2"/>
  
  <!-- Heart Symbol with pulse wave -->
  <g transform="translate(32, 32)">
    <!-- Heart -->
    <path d="M0,4 C0,-2 -8,-6 -12,0 C-16,-6 -24,-2 -24,4 C-24,12 0,24 0,24 S24,12 24,4 C24,-2 16,-6 12,0 C8,-6 0,-2 0,4 Z" 
          fill="white" transform="scale(0.6) translate(-12, -16)"/>
    
    <!-- Pulse Wave -->
    <path d="M-20,-2 L-16,-2 L-14,2 L-12,-6 L-10,8 L-8,-4 L-6,0 L-2,0 M2,0 L6,0 L8,-4 L10,8 L12,-6 L14,2 L16,-2 L20,-2" 
          stroke="white" stroke-width="2" fill="none" stroke-linecap="round"/>
  </g>
  
  <!-- Small dots for health monitoring effect -->
  <circle cx="16" cy="16" r="1.5" fill="rgba(255,255,255,0.6)"/>
  <circle cx="48" cy="16" r="1.5" fill="rgba(255,255,255,0.6)"/>
  <circle cx="16" cy="48" r="1.5" fill="rgba(255,255,255,0.6)"/>
  <circle cx="48" cy="48" r="1.5" fill="rgba(255,255,255,0.6)"/>
</svg>
